<svg version="1.1" id="Layer_1" xmlns="http://www.w3.org/2000/svg" xmlns:xlink="http://www.w3.org/1999/xlink" x="0px" y="0px"
	 width="100%" viewBox="0 0 1316 843" enable-background="new 0 0 1316 843" xml:space="preserve">
<path fill="#FFFFFF" opacity="1.000000" stroke="none" 
	d="
M1315.000000,844.000000 
	C877.054626,844.000000 439.109283,844.000000 1.081962,844.000000 
	C1.081962,563.089722 1.081962,282.179413 1.081962,1.134546 
	C439.666626,1.134546 878.333313,1.134546 1317.000000,1.134546 
	C1317.000000,3.733094 1317.000000,6.399517 1316.607666,9.641423 
	C1315.813599,12.039772 1315.060547,13.862565 1315.060181,15.685492 
	C1315.004761,291.790314 1315.003540,567.895142 1315.000000,844.000000 
M774.086426,491.846039 
	C769.133240,492.273407 764.159058,493.217194 759.231506,493.016083 
	C750.164917,492.646027 745.241638,488.785828 743.235596,480.055908 
	C741.834290,473.957489 741.129150,467.570526 741.096558,461.307312 
	C740.905090,424.488220 741.002563,387.667633 741.002686,350.847534 
	C741.002686,349.079193 741.002686,347.310822 741.002686,345.366028 
	C720.445862,345.366028 700.522522,345.366028 680.464905,345.366028 
	C680.464905,347.132324 680.464905,348.679443 680.464905,350.779358 
	C687.993713,350.779358 695.227783,350.779358 702.836609,350.779358 
	C702.836609,363.966797 702.817993,376.602325 702.840576,389.237793 
	C702.883179,413.061859 702.608154,436.893341 703.131958,460.707092 
	C703.454407,475.367676 708.056763,488.912170 722.205872,495.714142 
	C739.635010,504.092896 757.885925,503.945343 776.689819,496.864929 
	C791.691345,490.361053 800.630005,478.099762 808.168945,464.133026 
	C808.168945,475.709351 808.168945,487.285675 808.168945,498.823547 
	C828.303467,498.823547 848.039917,498.823547 868.125183,498.823547 
	C867.908081,497.066956 867.737732,495.688354 867.514587,493.882233 
	C860.044678,493.882233 852.954407,493.882233 845.482422,493.882233 
	C845.482422,444.144684 845.482422,394.888977 845.482422,345.399384 
	C825.012451,345.399384 804.948730,345.399384 784.717407,345.399384 
	C784.717407,347.201477 784.717407,348.749725 784.717407,350.794312 
	C792.256042,350.794312 799.494507,350.794312 806.695679,350.794312 
	C806.909302,351.747192 807.107727,352.219421 807.107666,352.691681 
	C807.104675,381.344482 807.973816,410.034210 806.786255,438.638428 
	C805.838379,461.468384 797.424805,481.191162 774.086426,491.846039 
M580.774780,352.539154 
	C585.223633,352.108521 589.723511,351.031464 594.110901,351.378174 
	C604.080994,352.166107 609.039124,356.941559 610.949219,366.768890 
	C611.581116,370.020050 611.983459,373.372131 611.992676,376.679443 
	C612.098572,414.810516 612.111633,452.941803 612.126770,491.073059 
	C612.127197,492.008728 611.867615,492.944550 611.681519,494.203064 
	C605.164856,494.203064 598.888184,494.203064 592.443115,494.203064 
	C592.443115,495.954559 592.443115,497.336761 592.443115,498.884521 
	C619.613525,498.884521 646.499573,498.884521 673.530029,498.884521 
	C673.530029,497.214539 673.530029,495.842346 673.530029,493.916473 
	C665.845459,493.916473 658.451416,493.916473 650.849670,493.916473 
	C650.849670,491.540894 650.849670,489.721161 650.849670,487.901428 
	C650.849609,456.430328 650.889221,424.959167 650.809875,393.488251 
	C650.796875,388.339081 650.605896,383.143005 649.896484,378.052307 
	C648.159912,365.589630 643.035706,354.591675 631.379272,348.909576 
	C615.147766,340.997162 598.014893,341.002106 580.109314,346.577942 
	C563.547974,352.216675 553.613831,364.622894 546.715393,380.129181 
	C546.326172,379.993958 545.936890,379.858734 545.547607,379.723480 
	C545.547607,368.265656 545.547607,356.807831 545.547607,345.396606 
	C525.033997,345.396606 505.264252,345.396606 485.135254,345.396606 
	C485.246613,347.213287 485.341492,348.760590 485.463013,350.743103 
	C493.103577,350.743103 500.349335,350.743103 507.688782,350.743103 
	C507.688782,398.743744 507.688782,446.280334 507.688782,494.203796 
	C500.122162,494.203796 492.852448,494.203796 485.456085,494.203796 
	C485.456085,495.977997 485.456085,497.361481 485.456085,498.867310 
	C512.642700,498.867310 539.532715,498.867310 566.508728,498.867310 
	C566.508728,497.188354 566.508728,495.813568 566.508728,493.932068 
	C559.628174,493.932068 553.060608,493.932068 546.531616,493.932068 
	C546.353760,492.956421 546.190918,492.479523 546.190735,492.002563 
	C546.178040,464.023468 545.305908,436.008850 546.443542,408.076111 
	C547.422974,384.029022 555.375366,362.924896 580.774780,352.539154 
M363.337280,280.219116 
	C342.783508,333.816772 322.248566,387.421661 301.662659,441.006989 
	C296.530334,454.366425 291.531982,467.790283 285.907867,480.943268 
	C282.138306,489.758942 275.381165,494.965088 265.125092,494.155609 
	C263.515991,494.028595 261.888306,494.137817 259.972687,494.137817 
	C260.072662,496.149078 260.143585,497.575470 260.216461,499.041473 
	C281.332581,499.041473 302.113617,499.041473 322.992371,499.041473 
	C322.992371,497.405426 322.992371,495.975830 322.992371,494.130341 
	C319.634155,494.130341 316.499176,494.284271 313.386383,494.087280 
	C310.245178,493.888458 307.053833,493.636139 304.010864,492.890930 
	C295.382996,490.778015 291.167267,484.194855 294.107697,475.992828 
	C300.826721,457.250549 308.131073,438.718079 315.295135,419.843628 
	C332.039520,419.843628 348.520325,419.843628 365.929077,419.982605 
	C373.262177,419.990082 380.604523,420.217224 387.924347,419.909180 
	C391.406189,419.762665 392.782043,421.075470 394.021484,424.146576 
	C402.794525,445.884491 411.782776,467.535522 420.688446,489.219971 
	C421.282837,490.667267 421.762909,492.161530 422.521118,494.255188 
	C414.221558,494.255188 406.771851,494.255188 399.156189,494.255188 
	C399.156189,496.036011 399.156189,497.414642 399.156189,498.895447 
	C427.219452,498.895447 454.976807,498.895447 483.099152,498.895447 
	C482.999664,497.230255 482.917664,495.857391 482.816498,494.163818 
	C478.959747,494.163818 475.456909,493.899078 472.012085,494.232910 
	C467.992432,494.622528 465.958740,493.266083 464.376129,489.357330 
	C442.684784,435.783234 420.807281,382.284485 398.964844,328.771606 
	C391.252655,309.877075 383.511505,290.994385 375.830963,272.222076 
	C364.675568,271.956543 366.991821,270.358673 363.337280,280.219116 
M972.548828,500.693146 
	C1004.955872,505.858887 1035.504639,491.358978 1046.600464,456.421234 
	C1052.499634,437.846252 1053.280273,418.885376 1050.507690,399.683777 
	C1048.577515,386.317322 1045.035889,373.410278 1036.105347,363.021301 
	C1018.838074,342.934113 996.475159,339.969513 971.275635,345.306854 
	C955.277222,350.188934 945.315552,361.538086 939.005798,376.799591 
	C938.611145,376.557190 938.216553,376.314758 937.821899,376.072327 
	C937.821899,365.853210 937.821899,355.634064 937.821899,345.512207 
	C917.594910,345.512207 897.870422,345.512207 877.850159,345.512207 
	C877.943054,347.318909 878.016541,348.748474 878.112000,350.604736 
	C885.698242,350.604736 892.976807,350.604736 900.543457,350.604736 
	C900.543457,424.584442 900.543457,498.119781 900.543457,572.253662 
	C892.910828,572.253662 885.521851,572.253662 877.849731,572.253662 
	C877.942688,574.298706 878.007935,575.732300 878.079651,577.310303 
	C906.151917,577.310303 933.898560,577.310303 962.039734,577.310303 
	C961.903931,575.451172 961.791138,573.907410 961.651062,571.989746 
	C953.925232,571.989746 946.665833,571.989746 939.252441,571.989746 
	C939.252441,539.889465 939.252441,508.202759 939.252441,475.295715 
	C947.084534,488.843140 956.838989,498.196442 972.548828,500.693146 
z"/>
<path fill="#D5D5D5" opacity="1.000000" stroke="none" 
	d="
M1315.250000,844.000000 
	C1315.003540,567.895142 1315.004761,291.790314 1315.060181,15.685492 
	C1315.060547,13.862565 1315.813599,12.039772 1316.607666,10.108454 
	C1317.000000,223.020889 1317.000000,436.041779 1316.686768,649.810181 
	C1316.250610,652.539368 1316.020996,654.521057 1316.020264,656.502808 
	C1315.999878,719.001892 1316.001587,781.500916 1316.000000,844.000000 
	C1316.000000,844.000000 1315.500000,844.000000 1315.250000,844.000000 
z"/>
<path fill="#FFFFFF" opacity="1.000000" stroke="none" 
	d="
M1316.500000,844.000000 
	C1316.001587,781.500916 1315.999878,719.001892 1316.020264,656.502808 
	C1316.020996,654.521057 1316.250610,652.539368 1316.686768,650.278809 
	C1317.000000,714.666687 1317.000000,779.333313 1316.500000,844.000000 
z"/>
<path fill="#D102FF" opacity="1.000000" stroke="none" 
	d="
M971.944824,500.228149 
	C956.838989,498.196442 947.084534,488.843140 939.252441,475.295715 
	C939.252441,508.202759 939.252441,539.889465 939.252441,571.989746 
	C946.665833,571.989746 953.925232,571.989746 961.651062,571.989746 
	C961.791138,573.907410 961.903931,575.451172 962.039734,577.310303 
	C933.898560,577.310303 906.151917,577.310303 878.079651,577.310303 
	C878.007935,575.732300 877.942688,574.298706 877.849731,572.253662 
	C885.521851,572.253662 892.910828,572.253662 900.543457,572.253662 
	C900.543457,498.119781 900.543457,424.584442 900.543457,350.604736 
	C892.976807,350.604736 885.698242,350.604736 878.112000,350.604736 
	C878.016541,348.748474 877.943054,347.318909 877.850159,345.512207 
	C897.870422,345.512207 917.594910,345.512207 937.821899,345.512207 
	C937.821899,355.634064 937.821899,365.853210 937.821899,376.072327 
	C938.216553,376.314758 938.611145,376.557190 939.005798,376.799591 
	C945.315552,361.538086 955.277222,350.188934 971.642395,345.657745 
	C972.338135,347.554108 972.667053,349.099579 972.639160,350.786987 
	C964.616272,352.865936 958.314758,356.985931 953.179260,362.936798 
	C945.555176,371.771484 940.606140,382.183289 940.072021,393.613495 
	C939.103333,414.342102 939.439575,435.134918 939.423767,455.901093 
	C939.421570,458.833649 940.242493,461.848724 941.129395,464.685883 
	C944.921387,476.816589 950.811096,487.352295 963.488770,492.289764 
	C966.259705,493.368958 969.159180,494.118042 971.999756,495.452362 
	C971.981628,497.333099 971.963196,498.780640 971.944824,500.228149 
z"/>
<path fill="#9202FF" opacity="1.000000" stroke="none" 
	d="
M363.873138,279.733643 
	C366.991821,270.358673 364.675568,271.956543 375.830963,272.222076 
	C383.511505,290.994385 391.252655,309.877075 398.964844,328.771606 
	C420.807281,382.284485 442.684784,435.783234 464.376129,489.357330 
	C465.958740,493.266083 467.992432,494.622528 472.012085,494.232910 
	C475.456909,493.899078 478.959747,494.163818 482.816498,494.163818 
	C482.917664,495.857391 482.999664,497.230255 483.099152,498.895447 
	C454.976807,498.895447 427.219452,498.895447 399.156189,498.895447 
	C399.156189,497.414642 399.156189,496.036011 399.156189,494.255188 
	C406.771851,494.255188 414.221558,494.255188 422.521118,494.255188 
	C421.762909,492.161530 421.282837,490.667267 420.688446,489.219971 
	C411.782776,467.535522 402.794525,445.884491 394.021484,424.146576 
	C392.782043,421.075470 391.406189,419.762665 387.924347,419.909180 
	C380.604523,420.217224 373.262177,419.990082 365.464569,419.513245 
	C365.000122,417.710327 365.000183,416.376770 365.462097,414.956696 
	C373.812531,414.870148 381.701141,414.870148 390.137421,414.870148 
	C389.123962,412.236267 388.394653,410.248169 387.598846,408.287079 
	C379.443237,388.188232 371.276886,368.093689 363.500977,347.896118 
	C364.258881,346.445343 364.947205,345.097595 364.952026,343.747375 
	C365.021698,324.164978 365.028381,304.582062 364.950745,284.999695 
	C364.943787,283.242950 364.248657,281.488922 363.873138,279.733643 
z"/>
<path fill="#A102FF" opacity="1.000000" stroke="none" 
	d="
M579.987000,352.540527 
	C555.375366,362.924896 547.422974,384.029022 546.443542,408.076111 
	C545.305908,436.008850 546.178040,464.023468 546.190735,492.002563 
	C546.190918,492.479523 546.353760,492.956421 546.531616,493.932068 
	C553.060608,493.932068 559.628174,493.932068 566.508728,493.932068 
	C566.508728,495.813568 566.508728,497.188354 566.508728,498.867310 
	C539.532715,498.867310 512.642700,498.867310 485.456085,498.867310 
	C485.456085,497.361481 485.456085,495.977997 485.456085,494.203796 
	C492.852448,494.203796 500.122162,494.203796 507.688782,494.203796 
	C507.688782,446.280334 507.688782,398.743744 507.688782,350.743103 
	C500.349335,350.743103 493.103577,350.743103 485.463013,350.743103 
	C485.341492,348.760590 485.246613,347.213287 485.135254,345.396606 
	C505.264252,345.396606 525.033997,345.396606 545.547607,345.396606 
	C545.547607,356.807831 545.547607,368.265656 545.547607,379.723480 
	C545.936890,379.858734 546.326172,379.993958 546.715393,380.129181 
	C553.613831,364.622894 563.547974,352.216675 580.516602,346.897339 
	C580.611633,348.991302 580.299316,350.765930 579.987000,352.540527 
z"/>
<path fill="#C503FF" opacity="1.000000" stroke="none" 
	d="
M774.909851,491.745392 
	C797.424805,481.191162 805.838379,461.468384 806.786255,438.638428 
	C807.973816,410.034210 807.104675,381.344482 807.107666,352.691681 
	C807.107727,352.219421 806.909302,351.747192 806.695679,350.794312 
	C799.494507,350.794312 792.256042,350.794312 784.717407,350.794312 
	C784.717407,348.749725 784.717407,347.201477 784.717407,345.399384 
	C804.948730,345.399384 825.012451,345.399384 845.482422,345.399384 
	C845.482422,394.888977 845.482422,444.144684 845.482422,493.882233 
	C852.954407,493.882233 860.044678,493.882233 867.514587,493.882233 
	C867.737732,495.688354 867.908081,497.066956 868.125183,498.823547 
	C848.039917,498.823547 828.303467,498.823547 808.168945,498.823547 
	C808.168945,487.285675 808.168945,475.709351 808.168945,464.133026 
	C800.630005,478.099762 791.691345,490.361053 776.293518,496.515503 
	C775.568115,494.692505 775.238953,493.218933 774.909851,491.745392 
z"/>
<path fill="#AE04FF" opacity="1.000000" stroke="none" 
	d="
M580.380859,352.539856 
	C580.299316,350.765930 580.611633,348.991302 580.893127,346.807220 
	C598.014893,341.002106 615.147766,340.997162 631.379272,348.909576 
	C643.035706,354.591675 648.159912,365.589630 649.896484,378.052307 
	C650.605896,383.143005 650.796875,388.339081 650.809875,393.488251 
	C650.889221,424.959167 650.849609,456.430328 650.849670,487.901428 
	C650.849670,489.721161 650.849670,491.540894 650.849670,493.916473 
	C658.451416,493.916473 665.845459,493.916473 673.530029,493.916473 
	C673.530029,495.842346 673.530029,497.214539 673.530029,498.884521 
	C646.499573,498.884521 619.613525,498.884521 592.443115,498.884521 
	C592.443115,497.336761 592.443115,495.954559 592.443115,494.203064 
	C598.888184,494.203064 605.164856,494.203064 611.681519,494.203064 
	C611.867615,492.944550 612.127197,492.008728 612.126770,491.073059 
	C612.111633,452.941803 612.098572,414.810516 611.992676,376.679443 
	C611.983459,373.372131 611.581116,370.020050 610.949219,366.768890 
	C609.039124,356.941559 604.080994,352.166107 594.110901,351.378174 
	C589.723511,351.031464 585.223633,352.108521 580.380859,352.539856 
z"/>
<path fill="#B902FF" opacity="1.000000" stroke="none" 
	d="
M774.498169,491.795715 
	C775.238953,493.218933 775.568115,494.692505 775.938293,496.541260 
	C757.885925,503.945343 739.635010,504.092896 722.205872,495.714142 
	C708.056763,488.912170 703.454407,475.367676 703.131958,460.707092 
	C702.608154,436.893341 702.883179,413.061859 702.840576,389.237793 
	C702.817993,376.602325 702.836609,363.966797 702.836609,350.779358 
	C695.227783,350.779358 687.993713,350.779358 680.464905,350.779358 
	C680.464905,348.679443 680.464905,347.132324 680.464905,345.366028 
	C700.522522,345.366028 720.445862,345.366028 741.002686,345.366028 
	C741.002686,347.310822 741.002686,349.079193 741.002686,350.847534 
	C741.002563,387.667633 740.905090,424.488220 741.096558,461.307312 
	C741.129150,467.570526 741.834290,473.957489 743.235596,480.055908 
	C745.241638,488.785828 750.164917,492.646027 759.231506,493.016083 
	C764.159058,493.217194 769.133240,492.273407 774.498169,491.795715 
z"/>
<path fill="#DE02FF" opacity="1.000000" stroke="none" 
	d="
M972.995972,350.645020 
	C972.667053,349.099579 972.338135,347.554108 972.001099,345.666809 
	C996.475159,339.969513 1018.838074,342.934113 1036.105347,363.021301 
	C1045.035889,373.410278 1048.577515,386.317322 1050.507690,399.683777 
	C1053.280273,418.885376 1052.499634,437.846252 1046.600464,456.421234 
	C1035.504639,491.358978 1004.955872,505.858887 972.246826,500.460632 
	C971.963196,498.780640 971.981628,497.333099 972.451355,495.396790 
	C984.762939,495.692444 994.735779,492.164276 1000.972290,481.529388 
	C1003.545166,477.141907 1005.698364,472.261780 1006.849792,467.327393 
	C1013.991333,436.723572 1013.769226,405.918701 1007.716309,375.219666 
	C1004.014404,356.444122 991.075684,347.726440 972.995972,350.645020 
z"/>
<path fill="#8A06FF" opacity="1.000000" stroke="none" 
	d="
M363.605225,279.976379 
	C364.248657,281.488922 364.943787,283.242950 364.950745,284.999695 
	C365.028381,304.582062 365.021698,324.164978 364.952026,343.747375 
	C364.947205,345.097595 364.258881,346.445343 363.289825,347.603638 
	C359.314667,339.451294 355.938080,331.489502 352.382690,323.106049 
	C340.619568,353.842560 329.025269,384.137970 317.197601,415.043243 
	C333.727509,415.043243 349.363861,415.043243 365.000214,415.043243 
	C365.000183,416.376770 365.000122,417.710327 365.000610,419.443726 
	C348.520325,419.843628 332.039520,419.843628 315.295135,419.843628 
	C308.131073,438.718079 300.826721,457.250549 294.107697,475.992828 
	C291.167267,484.194855 295.382996,490.778015 304.010864,492.890930 
	C307.053833,493.636139 310.245178,493.888458 313.386383,494.087280 
	C316.499176,494.284271 319.634155,494.130341 322.992371,494.130341 
	C322.992371,495.975830 322.992371,497.405426 322.992371,499.041473 
	C302.113617,499.041473 281.332581,499.041473 260.216461,499.041473 
	C260.143585,497.575470 260.072662,496.149078 259.972687,494.137817 
	C261.888306,494.137817 263.515991,494.028595 265.125092,494.155609 
	C275.381165,494.965088 282.138306,489.758942 285.907867,480.943268 
	C291.531982,467.790283 296.530334,454.366425 301.662659,441.006989 
	C322.248566,387.421661 342.783508,333.816772 363.605225,279.976379 
z"/>
<path fill="#FFFEFF" opacity="1.000000" stroke="none" 
	d="
M972.639221,350.786987 
	C991.075684,347.726440 1004.014404,356.444122 1007.716309,375.219666 
	C1013.769226,405.918701 1013.991333,436.723572 1006.849792,467.327393 
	C1005.698364,472.261780 1003.545166,477.141907 1000.972290,481.529388 
	C994.735779,492.164276 984.762939,495.692444 972.451050,494.963562 
	C969.159180,494.118042 966.259705,493.368958 963.488770,492.289764 
	C950.811096,487.352295 944.921387,476.816589 941.129395,464.685883 
	C940.242493,461.848724 939.421570,458.833649 939.423767,455.901093 
	C939.439575,435.134918 939.103333,414.342102 940.072021,393.613495 
	C940.606140,382.183289 945.555176,371.771484 953.179260,362.936798 
	C958.314758,356.985931 964.616272,352.865936 972.639221,350.786987 
z"/>
<path fill="#FFFEFF" opacity="1.000000" stroke="none" 
	d="
M365.462097,414.956696 
	C349.363861,415.043243 333.727509,415.043243 317.197601,415.043243 
	C329.025269,384.137970 340.619568,353.842560 352.382690,323.106049 
	C355.938080,331.489502 359.314667,339.451294 362.902344,347.705505 
	C371.276886,368.093689 379.443237,388.188232 387.598846,408.287079 
	C388.394653,410.248169 389.123962,412.236267 390.137421,414.870148 
	C381.701141,414.870148 373.812531,414.870148 365.462097,414.956696 
z"/>
</svg>